<svg xmlns="http://www.w3.org/2000/svg" width="90" height="90" viewBox="0 0 90 90">
  <g id="Group_18492" data-name="Group 18492" transform="translate(-1005 -405)">
    <circle id="Ellipse_618" data-name="Ellipse 618" cx="45" cy="45" r="45" transform="translate(1005 405)" fill="#2c3391"/>
    <path id="_290144_building_office_finance_buildings_icon_2_" data-name="290144_building_office_finance buildings_icon (2)" d="M6,46.1V19.628a3.922,3.922,0,0,1,3.922-3.922h0V11.785a1.962,1.962,0,0,1,1.961-1.961h1.961V1.98a.98.98,0,1,1,1.961,0V9.824h1.961a1.962,1.962,0,0,1,1.961,1.961v3.922h0a3.922,3.922,0,0,1,3.922,3.922v7.843h6.863V21.589h3.922V18.648h5.883v2.941h.98V46.1ZM17.765,12.765a.98.98,0,0,0-.98-.98H12.863a.98.98,0,0,0-.98.98v2.941h5.883Zm3.922,6.863a1.962,1.962,0,0,0-1.961-1.961h-9.8a1.962,1.962,0,0,0-1.961,1.961V44.139H21.687Zm8.824,9.8H23.648V44.139h6.863Zm8.824-5.883H32.472V44.139h6.863Zm-3.922,2.941h.98a.98.98,0,0,1,.98.98v.98a.98.98,0,0,1-.98.98h-.98a.98.98,0,0,1-.98-.98v-.98A.98.98,0,0,1,35.413,26.491Zm0,5.883h.98a.98.98,0,0,1,.98.98v.98a.98.98,0,0,1-.98.98h-.98a.98.98,0,0,1-.98-.98v-.98A.98.98,0,0,1,35.413,32.374Zm0,5.883h.98a.98.98,0,0,1,.98.98v.98a.98.98,0,0,1-.98.98h-.98a.98.98,0,0,1-.98-.98v-.98A.98.98,0,0,1,35.413,38.256Zm-8.824-5.883h.98a.98.98,0,0,1,.98.98v.98a.98.98,0,0,1-.98.98h-.98a.98.98,0,0,1-.98-.98v-.98A.98.98,0,0,1,26.589,32.374Zm0,5.883h.98a.98.98,0,0,1,.98.98v.98a.98.98,0,0,1-.98.98h-.98a.98.98,0,0,1-.98-.98v-.98A.98.98,0,0,1,26.589,38.256ZM17.765,41.2h-.98a.98.98,0,0,1-.98-.98v-.98a.98.98,0,0,1,.98-.98h.98a.98.98,0,0,1,.98.98v.98A.98.98,0,0,1,17.765,41.2Zm0-5.883h-.98a.98.98,0,0,1-.98-.98v-.98a.98.98,0,0,1,.98-.98h.98a.98.98,0,0,1,.98.98v.98A.98.98,0,0,1,17.765,35.315Zm0-5.883h-.98a.98.98,0,0,1-.98-.98v-.98a.98.98,0,0,1,.98-.98h.98a.98.98,0,0,1,.98.98v.98A.98.98,0,0,1,17.765,29.432Zm0-5.883h-.98a.98.98,0,0,1-.98-.98v-.98a.98.98,0,0,1,.98-.98h.98a.98.98,0,0,1,.98.98v.98A.98.98,0,0,1,17.765,23.55ZM12.863,41.2h-.98a.98.98,0,0,1-.98-.98v-.98a.98.98,0,0,1,.98-.98h.98a.98.98,0,0,1,.98.98v.98A.98.98,0,0,1,12.863,41.2Zm0-5.883h-.98a.98.98,0,0,1-.98-.98v-.98a.98.98,0,0,1,.98-.98h.98a.98.98,0,0,1,.98.98v.98A.98.98,0,0,1,12.863,35.315Zm0-5.883h-.98a.98.98,0,0,1-.98-.98v-.98a.98.98,0,0,1,.98-.98h.98a.98.98,0,0,1,.98.98v.98A.98.98,0,0,1,12.863,29.432Zm0-5.883h-.98a.98.98,0,0,1-.98-.98v-.98a.98.98,0,0,1,.98-.98h.98a.98.98,0,0,1,.98.98v.98A.98.98,0,0,1,12.863,23.55Z" transform="translate(1026.716 425.026)" fill="#fff" fill-rule="evenodd"/>
  </g>
</svg>
