<svg xmlns="http://www.w3.org/2000/svg" width="90" height="90" viewBox="0 0 90 90">
  <g id="Group_18492" data-name="Group 18492" transform="translate(-1005 -405)">
    <circle id="Ellipse_618" data-name="Ellipse 618" cx="45" cy="45" r="45" transform="translate(1005 405)" fill="#eef5fd"/>
    <g id="Group_18491" data-name="Group 18491" transform="translate(-194.5 -118.005)">
      <path id="Path_33193" data-name="Path 33193" d="M1221.5,582.107a1.034,1.034,0,0,1,1.008-.485c1.9.019,3.808.008,5.712.008h.633c0-.961-.029-1.878.006-2.792a35.1,35.1,0,0,1,.853-6.887,9.338,9.338,0,0,1,7.9-7.486c.255-.05.519-.057.777-.094a2.074,2.074,0,0,1,2.224.717,1.084,1.084,0,0,0,.2.185,1.319,1.319,0,0,0,.21.08c.032-.608.087-1.177.077-1.745a.834.834,0,0,0-.3-.485,7.31,7.31,0,0,1-2.216-3.745.944.944,0,0,0-.385-.507,3.413,3.413,0,0,1-1.061-4.761.961.961,0,0,0,.1-.547c-.066-.886-.177-1.769-.228-2.656a3,3,0,0,1,.5-1.742,7.308,7.308,0,0,1,3.287-2.854,12.131,12.131,0,0,1,7.791-1.063,2.726,2.726,0,0,1,2.074,1.637,2.632,2.632,0,0,0,.8.959,5.57,5.57,0,0,1,1.548,1.739,3.142,3.142,0,0,1-.005,3.244c-.134.24-.277.476-.413.71a3.5,3.5,0,0,1-.652,5.4.823.823,0,0,0-.3.423,7.933,7.933,0,0,1-2.519,3.986.629.629,0,0,0-.24.413c.021.54.093,1.078.16,1.754a7.81,7.81,0,0,1,.918-.781,2.145,2.145,0,0,1,.982-.381,9.5,9.5,0,0,1,9.538,7.624,46.7,46.7,0,0,1,.915,8.546c.01.322.012.644.021.967a.672.672,0,0,0,.057.142h.466q2.879,0,5.759,0c.635,0,.97.248.978.715s-.356.758-1,.758q-16.17.009-32.339.014c-4.254,0-8.507-.013-12.761-.008a1.039,1.039,0,0,1-1.073-.541Zm32.967-3.246v-.488q0-4.329,0-8.658c0-.714-.119-.836-.825-.836q-3.521,0-7.043,0h-10.036c-.743,0-.853.111-.853.854q0,4.329,0,8.658c0,.149.013.3.021.471Zm-6.221-27.923a3.42,3.42,0,0,1-2.682.98c-1.517.011-3.035.072-4.55.157a1.763,1.763,0,0,0-1.93,1.654,1.366,1.366,0,0,1-.068.267,1.563,1.563,0,0,1-.294.549,1.907,1.907,0,0,0,.638,3.242.85.85,0,0,1,.575.707,9.078,9.078,0,0,0,.451,1.584c1.421,3.259,5.755,4.649,8.535,1.386a7.524,7.524,0,0,0,1.425-2.956,1.205,1.205,0,0,1,.493-.705,2.178,2.178,0,0,0,1.243-2.36c-.054-.258-.321-.662-.5-.669-.714-.027-.953-.5-1.222-1.017A9.7,9.7,0,0,0,1248.247,550.938Zm1.036,16.362.036.1h.481c1.289,0,2.579,0,3.868,0a2.023,2.023,0,0,1,2.274,2.266q0,4.328,0,8.657v.571c.243,0,.425,0,.606,0,.754,0,1.028.246.977.991a16.426,16.426,0,0,1-.285,1.687h2.647a.5.5,0,0,0,.036-.117,43.035,43.035,0,0,0-.946-9.412,8,8,0,0,0-7.469-6.222c-.208-.012-.48-.047-.617.061C1250.332,566.33,1249.815,566.825,1249.283,567.3Zm-15.047,11.6v-.618q0-4.328,0-8.657a2.007,2.007,0,0,1,2.227-2.219c1.289,0,2.579,0,3.868,0,.156,0,.311-.017.558-.031-.506-.476-.941-.862-1.347-1.277a.913.913,0,0,0-.776-.285,8.069,8.069,0,0,0-7.5,6.016,34.47,34.47,0,0,0-.908,6.643c-.054,1.023-.009,2.051-.009,3.1h2.564c-.093-.623-.221-1.218-.261-1.818-.038-.571.26-.833.841-.849C1233.719,578.894,1233.947,578.9,1234.236,578.9Zm4.292-27.345a3.982,3.982,0,0,1,2.681-.978q2.323-.088,4.648-.138a1.679,1.679,0,0,0,1.469-.7.87.87,0,0,1,1.382-.249,7.877,7.877,0,0,1,1.333,1.187c.506.579.931,1.23,1.393,1.853a1.819,1.819,0,0,0,.1-2.526,13.146,13.146,0,0,0-1.1-1.09,5.076,5.076,0,0,1-1-1.223,1.708,1.708,0,0,0-1.417-1.067,10.87,10.87,0,0,0-7.422,1.481,5.054,5.054,0,0,0-1.915,2.009A2.3,2.3,0,0,0,1238.528,551.554Zm-4.305,28.835a.85.85,0,0,0,0,.176.836.836,0,0,0,.071.168,1.688,1.688,0,0,0,1.693.858q9.09-.018,18.181-.008a5.21,5.21,0,0,0,.6-.023,1.345,1.345,0,0,0,1.161-1.17Zm13.088-15.97a6.389,6.389,0,0,1-4.6-.1c-.192.678-.374,1.32-.552,1.963a.4.4,0,0,0-.012.22,2.4,2.4,0,0,0,1.3.905c1.042,0,2.085-.007,3.127,0,.651.006.9-.573,1.329-.885.027-.019.014-.115,0-.169C1247.709,565.713,1247.512,565.075,1247.311,564.419Z" fill="#1d237a"/>
      <path id="Path_33194" data-name="Path 33194" d="M1433.478,760.171c-.65-.5-1.237-.942-1.817-1.393a.772.772,0,0,1-.273-1.11c.266-.37.714-.4,1.17-.051q1.23.928,2.452,1.868a.763.763,0,0,1,.018,1.362q-1.234.961-2.486,1.9a.746.746,0,1,1-.9-1.168C1432.237,761.12,1432.832,760.667,1433.478,760.171Z" transform="translate(-183.98 -186.278)" fill="#1d237a"/>
      <path id="Path_33195" data-name="Path 33195" d="M1363.6,760.112c.632.485,1.215.93,1.795,1.378.45.347.555.783.281,1.143s-.719.379-1.175.032q-1.209-.92-2.413-1.846c-.608-.47-.6-.944.013-1.416q1.205-.925,2.415-1.843c.459-.347.9-.323,1.171.047a.777.777,0,0,1-.269,1.114C1364.837,759.174,1364.249,759.616,1363.6,760.112Z" transform="translate(-122.919 -186.225)" fill="#1d237a"/>
      <path id="Path_33196" data-name="Path 33196" d="M1401.216,756.084a.743.743,0,0,1-.769-1.012c.4-1.494.826-2.984,1.242-4.475.16-.576.316-1.153.491-1.725a.733.733,0,1,1,1.407.391c-.572,2.084-1.159,4.164-1.741,6.246A.7.7,0,0,1,1401.216,756.084Z" transform="translate(-156.927 -178.289)" fill="#1d237a"/>
    </g>
  </g>
</svg>
